<?xml version="1.0" encoding="UTF-8" standalone="no"?>
<svg
   xmlns:dc="http://purl.org/dc/elements/1.1/"
   xmlns:cc="http://creativecommons.org/ns#"
   xmlns:rdf="http://www.w3.org/1999/02/22-rdf-syntax-ns#"
   xmlns:svg="http://www.w3.org/2000/svg"
   xmlns="http://www.w3.org/2000/svg"
   xmlns:sodipodi="http://sodipodi.sourceforge.net/DTD/sodipodi-0.dtd"
   xmlns:inkscape="http://www.inkscape.org/namespaces/inkscape"
   id="svg"
   version="1.1"
   width="475.20651"
   height="154.73192"
   viewBox="0 0 475.20651 154.73192"
   sodipodi:docname="logo.svg"
   inkscape:version="1.0.1 (c497b03c, 2020-09-10)">
  <metadata
     id="metadata21">
    <rdf:RDF>
      <cc:Work
         rdf:about="">
        <dc:format>image/svg+xml</dc:format>
        <dc:type
           rdf:resource="http://purl.org/dc/dcmitype/StillImage" />
        <dc:title></dc:title>
      </cc:Work>
    </rdf:RDF>
  </metadata>
  <defs
     id="defs19" />
  <sodipodi:namedview
     pagecolor="#ffffff"
     bordercolor="#666666"
     borderopacity="1"
     objecttolerance="10"
     gridtolerance="10"
     guidetolerance="10"
     inkscape:pageopacity="0"
     inkscape:pageshadow="2"
     inkscape:window-width="1920"
     inkscape:window-height="1035"
     id="namedview17"
     showgrid="false"
     fit-margin-top="1.5"
     fit-margin-left="1.5"
     fit-margin-right="1.5"
     fit-margin-bottom="1.5"
     inkscape:zoom="1"
     inkscape:cx="46.156902"
     inkscape:cy="92.624897"
     inkscape:window-x="0"
     inkscape:window-y="23"
     inkscape:window-maximized="1"
     inkscape:current-layer="svgg"
     inkscape:snap-grids="false"
     inkscape:snap-to-guides="false" />
  <g
     id="svgg"
     transform="translate(7.3054826,29.945516)">
    <path
       id="path0"
       d="m 104.861,8.0320208 c -0.577,0.161 -1.725,0.411 -2.55,0.555998 -3.273002,0.575 -3.614002,0.671 -3.962002,1.11 -0.198,0.251 -0.554,0.3820002 -0.79,0.292 -0.236,-0.091 -1.076,0.1620002 -1.866,0.5620002 -0.79,0.4 -1.676,0.727 -1.97,0.727 -0.294,0 -0.898,0.338 -1.343,0.751 -0.445,0.412 -1.128,0.75 -1.516,0.75 -0.389,0 -0.706,0.114 -0.706,0.253 0,0.139 -0.459999,0.5 -1.020999,0.802 -0.657,0.354 -0.962,0.704 -0.855,0.982 0.125,0.327 0.009,0.383 -0.48,0.228 -0.367,-0.117 -0.645,-0.076 -0.645,0.095 0,0.165 -0.237,0.375 -0.525,0.467 -1.136,0.36 -5.028999,4.492 -4.970999,5.275 0.032,0.433 -0.009,0.528 -0.097,0.225 -0.084,-0.289 -0.224,-0.525 -0.31,-0.525 -0.376,0 -2.186,2.3 -2.192,2.785 -0.004,0.294 -0.218,0.615 -0.475,0.714 -0.257,0.098 -0.398,0.36 -0.313,0.581 0.085,0.221 0.025,0.481 -0.133,0.579 -0.157,0.098 -0.287,0.034 -0.287,-0.14 0,-0.175 -0.15,-0.318 -0.335,-0.318 -0.192,0 -0.276,0.308 -0.196,0.723 0.098,0.517 0.023,0.678 -0.266,0.568 -0.261,-0.101 -0.403,0.074 -0.403,0.495 0,0.357 -0.12,0.575 -0.268,0.484 -0.147,-0.091 -0.352,0.171 -0.456,0.583 -0.103,0.411 -0.32,0.748 -0.482,0.748 -0.162,0 -0.294,0.27 -0.294,0.6 0,0.33 -0.135,0.6 -0.3,0.6 -0.165,0 -0.3,0.338 -0.3,0.75 0,0.413 -0.135,0.75 -0.3,0.75 -0.165,0 -0.301,0.391 -0.301,0.869 0,0.494 -0.193,0.942 -0.45,1.04 -0.247,0.095 -0.45,0.439 -0.45,0.765 0,0.325 -0.135,0.675 -0.3,0.777 -0.165,0.102 -0.3,0.506 -0.3,0.897 0,0.391 -0.182,0.893 -0.405,1.116 -0.82,0.82 -0.921,4.575 -0.133,4.96 3.228,1.577 9.436,2.679 14.491999,2.573 1.485,-0.032 3.509999,-0.214 4.500999,-0.404 0.99,-0.191 2.307,-0.338 2.925,-0.325 0.619,0.012 1.126,-0.11 1.126,-0.271 0,-0.162 0.472,-0.294 1.05,-0.294 0.578,0 1.05,-0.129 1.05,-0.286 0,-0.158 0.474,-0.376 1.054,-0.484 0.579,-0.109 1.127,-0.318 1.218,-0.464 0.09,-0.146 0.422,-0.266 0.738002,-0.266 0.315,0 1.311,-0.338 2.213,-0.75 0.902,-0.413 1.78,-0.75 1.95,-0.75 0.171,0 0.236,-0.193 0.146,-0.429 -0.119,-0.309 0.003,-0.384 0.44,-0.27 0.393,0.103 0.9,-0.115 1.446,-0.622 0.463,-0.429 0.956,-0.78 1.096,-0.78 0.619,0 3.489,-2.279 3.348,-2.659 -0.102,-0.275 0.003,-0.349 0.322,-0.227 0.478,0.184 5.534,-4.467 5.534,-5.092 0,-0.16 0.27,-0.486 0.6,-0.724 0.33,-0.238 0.6,-0.605 0.6,-0.817 0,-0.211 0.135,-0.383 0.301,-0.383 0.165,0 0.3,-0.207 0.3,-0.46 0,-0.253 0.202,-0.537 0.45,-0.632 0.247,-0.095 0.45,-0.345 0.45,-0.554 0,-0.21 0.208,-0.555 0.463,-0.766 0.273,-0.227 0.416,-0.705 0.347,-1.162 -0.064,-0.428 -0.061,-0.609 0.009,-0.402 0.195,0.583 0.681,0.441 0.681,-0.2 0,-0.317 0.101,-0.621 0.225,-0.676 0.352,-0.156 1.876,-3.349 1.876,-3.93 0,-0.286 0.135,-0.521 0.3,-0.521 0.165,0 0.3,-0.312 0.3,-0.693 0,-0.381 0.198,-0.955 0.44,-1.275 0.243,-0.32 0.445,-1.013 0.451,-1.54 0.005,-0.527 0.156,-1.048 0.335,-1.159 0.192,-0.119 0.284,-0.892 0.225,-1.893 -0.112,-1.882 -0.654,-2.4640002 -2.662,-2.8600002 -0.572,-0.113 -1.715,-0.341 -2.54,-0.506998 -4.248,-0.855 -12.603,-1.148 -14.854,-0.522 M 59.399,37.307019 c -0.495,0.257 -0.967,0.548 -1.049,0.648 -0.22,0.265 -2.186,1.324 -5.184,2.793 -2.45,1.2 -2.619,1.341 -2.439,2.039 0.376,1.458 0.484,8.415 0.137,8.833 -0.251,0.302 -0.209,0.447 0.172,0.593 0.459,0.176 0.453,0.232 -0.067,0.626 -0.513,0.388 -0.519,0.433 -0.056,0.441 0.595,0.011 2.841,1.101 3.601,1.748 0.286,0.243 0.8,0.363 1.155,0.27 0.519,-0.135 0.611,-0.058 0.488,0.413 -0.101,0.387 0.001,0.58 0.309,0.58 0.254,0 1.119,0.472 1.923,1.05 0.805,0.578 1.732,1.05 2.062,1.05 0.663,0 0.812,-0.464 0.224,-0.701 -0.206,-0.084 -0.008,-0.162 0.441,-0.175 0.599,-0.018 0.77,-0.144 0.642,-0.478 -0.12,-0.312 -0.036,-0.4 0.269,-0.283 0.243,0.093 0.9,-0.105 1.458,-0.441 0.559,-0.336 1.523,-0.848 2.141,-1.138 0.619,-0.289 1.126,-0.629 1.126,-0.756 0,-0.126 0.158,-0.229 0.351,-0.229 0.194,0 0.866,-0.236 1.493,-0.525 l 1.141,-0.525 0.008,-5.627 c 0.005,-4.083 -0.088,-5.626 -0.342,-5.626 -0.56,0 -2.651,-0.992 -2.651,-1.258 0,-0.133 -0.27,-0.242 -0.6,-0.242 -0.331,0 -0.601,-0.135 -0.601,-0.3 0,-0.165 -0.193,-0.3 -0.428,-0.3 -0.236,0 -0.607,-0.169 -0.825,-0.376 -0.781,-0.738 -2.077,-1.262 -2.292,-0.927 -0.124,0.193 -0.444,0.224 -0.806,0.079 -0.575,-0.232 -0.571,-0.25 0.101,-0.451 0.934,-0.279 0.206,-0.758 -0.848,-0.559 -0.609,0.115 -0.642,0.094 -0.173,-0.111 0.319,-0.139 0.454,-0.331 0.299,-0.426 -0.155,-0.096 -0.686,0.035 -1.18,0.291 m 20.406,14.276 c -1.155,0.138 -2.335,0.376 -2.622,0.529 -0.286,0.153 -0.72,0.278 -0.964,0.278 -0.476,0 -2.793,0.725 -4.131,1.292 -0.872,0.37 -0.966,4.212 -0.128,5.269 0.416,0.526 1.083,2.434 1.089,3.116 0.002,0.289 0.139,0.525 0.304,0.525 0.165,0 0.3,0.262 0.3,0.583 0,0.32 0.115,0.653 0.256,0.74 0.141,0.087 0.499,0.804 0.798,1.593 0.298,0.79 0.689,1.535 0.869,1.656 0.598,0.402 1.078,0.237 1.078,-0.371 0,-0.333 0.2,-0.6 0.45,-0.6 0.28,0 0.45,-0.283 0.45,-0.75 0,-0.413 0.15,-0.75 0.333,-0.75 0.209,0 0.259,-0.293 0.135,-0.788 -0.15,-0.598 -0.098,-0.75 0.215,-0.63 0.258,0.099 0.63,-0.253 0.99,-0.937 0.318,-0.602 1.152,-2.034 1.853,-3.182 0.702,-1.148 1.276,-2.263 1.276,-2.476 0,-0.214 0.202,-0.389 0.45,-0.389 0.247,0 0.45,-0.176 0.45,-0.391 0,-0.552 0.706,-2.005 0.975,-2.008 0.124,-10e-4 0.225,-0.272 0.225,-0.602 0,-0.333 0.2,-0.6 0.449999,-0.6 0.28,0 0.45,-0.283 0.45,-0.746 0,-0.838 -1.009999,-0.904 -5.550999,-0.361 m 20.648,3.21 c -0.362,0.146 -0.902002,0.638 -1.201002,1.093 -0.723,1.104 -1.832,3.128 -2.071,3.781 -0.105,0.288 -0.311,0.525 -0.457,0.525 -0.146,0 -0.265,0.182 -0.265,0.406 0,0.223 -0.337,0.771 -0.75,1.216 -0.413,0.445 -0.75,1.072 -0.75,1.394 0,0.321 -0.135,0.585 -0.3,0.585 -0.165,0 -0.3,0.323 -0.3,0.718 0,0.395 -0.203,0.795 -0.451,0.89 -0.247,0.095 -0.45,0.38 -0.45,0.633 0,0.252 -0.135,0.459 -0.3,0.459 -0.165,0 -0.3,0.192 -0.3,0.425 0,0.234 -0.101,0.47 -0.225,0.525 -0.124,0.055 -0.468,0.573 -0.765,1.151 -1.073,2.088003 -1.873,3.476003 -2.535999,4.401003 -0.371,0.519 -0.675,1.158 -0.675,1.422 0,0.263 -0.135,0.478 -0.3,0.478 -0.165,0 -0.3,0.334 -0.3,0.741 0,0.564 -0.118,0.696 -0.493,0.552 -0.421,-0.162 -0.467,-0.018 -0.321,0.985 0.094,0.645 0.103,0.937 0.02,0.648 -0.203,-0.709 -0.706,-0.668 -0.706,0.057 0,0.321 -0.135,0.666 -0.3,0.768 -0.165,0.102 -0.29,0.414 -0.277,0.693 0.015,0.313 0.082,0.363 0.175,0.132 0.237,-0.588 0.702,-0.439 0.702,0.226 0,0.33 0.192,0.6 0.428,0.6 0.236,0 0.694,0.337 1.018,0.75 0.325,0.412 0.799,0.75 1.055,0.75 0.255,0 0.547999,0.135 0.649999,0.3 0.102,0.165 0.447,0.3 0.767,0.3 0.321,0 0.583,0.135 0.583,0.3 0,0.165 0.144,0.3 0.32,0.3 0.176,0 0.75,0.321 1.275,0.712 1.586,1.182 3.806,1.213 3.806,0.053 0,-0.228 0.101,-0.46 0.225,-0.515 0.285,-0.126 1.211,-1.644 1.662,-2.725 0.19,-0.454 0.451,-0.825 0.58,-0.825 0.128,0 0.234,-0.203 0.234,-0.451 0,-0.247 0.135,-0.45 0.3,-0.45 0.165,0 0.300002,-0.255 0.300002,-0.568 0,-0.312 0.203,-0.646 0.45,-0.741 0.248,-0.095 0.45,-0.447 0.45,-0.782 0,-0.335 0.135,-0.609 0.3,-0.609 0.165,0 0.3,-0.209 0.3,-0.464 0,-0.255 0.338,-0.801 0.751,-1.214 0.412,-0.413 0.75,-0.968 0.75,-1.233 0,-0.266 0.337,-0.926 0.75,-1.467 0.413,-0.541 0.753,-1.094 0.757,-1.229 0.003,-0.135 0.271,-0.582 0.593,-0.995 0.323,-0.413 0.59,-0.972003 0.594,-1.243003 0.003,-0.271 0.209,-0.571 0.457,-0.666 0.247,-0.095 0.45,-0.447 0.45,-0.782 0,-0.336 0.135,-0.61 0.3,-0.61 0.165,0 0.3,-0.148 0.3,-0.329 0,-0.18 0.304,-0.752 0.675,-1.271 0.904,-1.262 1.425,-2.28 1.425,-2.785 0,-0.229 0.135,-0.416 0.3,-0.416 0.488,0 0.343,-0.847 -0.196,-1.148 -0.29,-0.163 -0.421,-0.474 -0.315,-0.75 0.117,-0.306 -0.025,-0.537 -0.404,-0.658 -0.322,-0.102 -0.585,-0.283 -0.585,-0.403 0,-0.12 -0.672,-0.617 -1.494,-1.105 -0.822,-0.488 -1.497,-0.989 -1.501,-1.112 -0.003,-0.124 -0.242,-0.226 -0.531,-0.227 -0.289,-10e-4 -1.065,-0.334 -1.725,-0.741 -1.317,-0.811 -1.493,-0.844 -2.458,-0.455 m 9.209,5.066 c 0,0.148 0.214,0.35 0.475,0.451 0.734,0.281 0.807,0.22 0.318,-0.268 -0.51,-0.511 -0.793,-0.575 -0.793,-0.183 m -50.167,0.858 c -0.269,0.289 -1.157,1.123 -1.975,1.855 -1.033,0.923 -1.442,1.497 -1.343,1.879 0.098,0.374 0.012,0.504 -0.267,0.405 -0.64,-0.228 -1.83,1.009 -3.546,3.685 -0.866,1.349003 -1.696,2.453003 -1.845,2.453003 -0.149,0 -0.271,0.176 -0.271,0.392 0,0.509 -1.542,3.629 -1.858,3.759 -0.134,0.055 -0.243,0.419 -0.243,0.808 0,0.389 -0.135,0.791 -0.3,0.893 -0.165,0.102 -0.3,0.582 -0.3,1.068 0,0.485 -0.135,0.882 -0.3,0.882 -0.165,0 -0.3,0.245 -0.3,0.543 0,0.299 -0.199,0.805 -0.441,1.125 -0.242,0.321 -0.445,1.157 -0.45,1.858 -0.005,0.702 -0.125,1.276 -0.267,1.276 -0.783,0 -0.802,14.208 -0.02,15.674 0.153,0.287 0.278,1.005998 0.278,1.596998 0,0.592 0.202,1.279 0.45,1.526 0.247,0.248 0.45,0.77 0.45,1.161 0,0.391 0.135,0.795 0.3,0.897 0.165,0.102 0.3,0.515 0.3,0.918 0,0.403 0.122,0.732 0.272,0.732 0.15,0 0.507,0.747 0.794,1.66 0.287,0.913 0.638,1.731 0.778,1.818 0.141,0.087 0.256,0.351 0.256,0.587 0,0.236 0.195,0.667 0.432,0.958 0.238,0.291 1.217,1.688 2.176,3.106 2.622,3.876 4.29,5.716 4.982,5.497 0.473,-0.15 0.537,-0.073 0.372,0.448 -0.11,0.346 -0.081,0.63 0.064,0.63 0.145,0 0.547,0.264 0.895,0.588 1.325,1.235 1.878,1.096 4.06,-1.023 1.113,-1.08 2.028,-2.066 2.033,-2.19 0.006,-0.124 0.681,-0.969 1.5,-1.876 0.82,-0.908 1.49,-1.818 1.49,-2.024 0.001,-0.326 0.642,-1.207 1.668,-2.292 0.175,-0.185 0.714,-1.179 1.2,-2.211 0.486,-1.031 0.984,-1.875 1.108,-1.875 0.124,0 0.226,-0.272 0.226,-0.605 0,-0.332 0.119,-0.838 0.263,-1.125 0.697,-1.378 1.237,-2.847 1.237,-3.364 0,-0.315 0.135,-0.656 0.3,-0.758 0.165,-0.102 0.3,-0.69 0.3,-1.308 0,-0.617 0.12,-1.250998 0.266,-1.407998 0.948,-1.019 0.948,-14.854 0,-15.874 -0.146,-0.156 -0.266,-0.79 -0.266,-1.407 0,-0.618 -0.135,-1.206 -0.3,-1.308 -0.165,-0.102 -0.3,-0.566 -0.3,-1.031 0,-0.466 -0.202,-1.014 -0.45,-1.22 -0.247,-0.205 -0.45,-0.629 -0.45,-0.941 0,-0.312 -0.124,-0.802 -0.275,-1.088 -0.151,-0.287 -0.495,-1.062 -0.764,-1.722 -0.27,-0.66 -0.64,-1.47 -0.823,-1.8 -0.183,-0.33 -0.48,-0.865 -0.66,-1.189 -0.181,-0.324 -0.497,-0.772 -0.704,-0.997 -0.206,-0.224 -0.375,-0.601 -0.375,-0.836 0,-0.236 -0.135,-0.429 -0.3,-0.429 -0.165,0 -0.3,-0.178 -0.3,-0.396 0,-0.218003 -0.338,-0.690003 -0.75,-1.048003 -0.413,-0.359 -0.75,-0.796 -0.75,-0.972 0,-0.176 -0.574,-0.934 -1.276,-1.684 -3.205,-3.427 -3.295,-3.495 -3.648,-2.727 -0.095,0.207 -0.1,0.082 -0.012,-0.276 0.3,-1.221 -1.521,-2.535 -2.321,-1.674 m 60.37,11.478003 c 0,0.33 -0.135,0.6 -0.3,0.6 -0.165,0 -0.3,0.202 -0.3,0.45 0,0.247 -0.203,0.45 -0.45,0.45 -0.248,0 -0.45,0.262 -0.45,0.582 0,0.321 -0.135,0.666 -0.3,0.768 -0.166,0.102 -0.301,0.39 -0.301,0.64 0,0.249 -0.168,0.642 -0.375,0.872 -0.933,1.041 -1.125,1.344 -1.125,1.777 0,0.254 -0.101,0.464 -0.225,0.466 -0.557,0.008 -1.405,2.431 -0.959,2.738 0.33,0.227 0.281,0.256 -0.203,0.121 -0.502,-0.141 -0.746,0.03 -1.151,0.805 -0.282,0.541 -0.973,1.861 -1.534,2.934 l -1.022,1.95 0.672,0.171 c 1.206,0.307 6.826,-0.058 7.669,-0.497 0.442,-0.231 1.175,-0.421 1.629,-0.422 0.454,-10e-4 0.825,-0.137 0.825,-0.302 0,-0.165 0.473,-0.3 1.051,-0.3 0.723,0 1.05,-0.137 1.05,-0.441 0,-0.268 0.176,-0.373 0.45,-0.268 0.53,0.204 0.673,-2.419 0.15,-2.742 -0.165,-0.102 -0.3,-0.634 -0.3,-1.183 0,-0.549 -0.202,-1.385 -0.448,-1.858 -0.247,-0.473 -0.449,-1.088 -0.45,-1.367 -0.001,-0.279 -0.137,-0.591 -0.302,-0.693 -0.165,-0.102 -0.3,-0.435 -0.3,-0.74 0,-0.967 -1.522,-3.584 -1.981,-3.408 -0.324,0.124 -0.376,-0.05 -0.231,-0.772 0.147,-0.736 0.084,-0.931 -0.301,-0.931 -0.288,0 -0.488,0.246 -0.488,0.6 m -31.508001,7.069 c 0,0.238 -0.135,0.433 -0.3,0.433 -0.165,0 -0.3,-0.279 -0.3,-0.618 0,-0.34 0.135,-0.535 0.3,-0.433 0.165,0.102 0.3,0.38 0.3,0.618"
       stroke="none"
       fill="#000000"
       fill-rule="evenodd"
       style="stroke-width:2.5;stroke-miterlimit:4;stroke-dasharray:none" />
    <path
       id="path2"
       d="M 105.311,7.2130208 C 88.015999,9.7880188 73.045,23.734019 70.699,39.455019 c -0.367,2.466 -1.57,2.185 -7.726,-1.802 -3.183,-2.062 -2.889,-2 -4.28,-0.913 -1.588,1.24 -6.022,3.794 -7.348,4.231 -1.457,0.481 -1.513,0.667 -1.19,3.932 0.148,1.498 0.159,3.828 0.025,5.18 -0.339,3.4 -0.294,3.493 2.238,4.67 2.4,1.115 7.132,4.082 7.132,4.471 0,0.136 -0.979,1.188 -2.176,2.338 -5.19,4.99 -8.794,10.589003 -10.802,16.784003 -1.807,5.573 -2.135,7.596 -2.124,13.069 0.009,4.574 0.134,5.721 1.048,9.586998 1.69,7.149 5.464,13.82 10.948,19.351 3.69,3.722 3.156,3.6 5.798,1.32 5.076,-4.379 9.428,-11.19 11.738,-18.367 4.442,-13.800998 0.399,-30.014998 -10.145,-40.684001 -3.691,-3.735 -3.633,-3.233 -0.609,-5.215 5.442,-3.568 7.427,-4.055 7.427,-1.824 0,2.508 4.146,12.861 5.299,13.231 0.32,0.103 2.145,-2.78 4.603,-7.272 0.542,-0.99 1.213,-2.138 1.491,-2.551 0.928,-1.375 4.510999,-7.777 4.510999,-8.059 0,-0.995 -8.044999,-0.12 -13.261999,1.443 -3.347,1.003 -3.204,1.212 -3.144,-4.603 0.063,-6.034 -0.054,-5.857 3.239,-4.889 8.113,2.385 13.362999,2.589 21.568998,0.838 10.131002,-2.162 19.574002,-8.829 25.394002,-17.927 2.806,-4.386 5.466,-11.329 5.6,-14.614 l 0.064,-1.5510002 -2.434,-0.816 c -5.167,-1.733998 -12.856,-2.406998 -18.272,-1.599998 m 10.803,0.771 c 1.155,0.147 2.776,0.404 3.601,0.57 0.825,0.165998 1.968,0.393998 2.54,0.506998 2.008,0.396 2.55,0.9780002 2.662,2.8600002 0.059,1.001 -0.033,1.774 -0.225,1.893 -0.179,0.111 -0.33,0.632 -0.335,1.159 -0.006,0.527 -0.208,1.22 -0.451,1.54 -0.242,0.32 -0.44,0.894 -0.44,1.275 0,0.381 -0.135,0.693 -0.3,0.693 -0.165,0 -0.3,0.235 -0.3,0.521 0,0.581 -1.524,3.774 -1.876,3.93 -0.124,0.055 -0.225,0.359 -0.225,0.676 0,0.641 -0.486,0.783 -0.681,0.2 -0.07,-0.207 -0.073,-0.026 -0.009,0.402 0.069,0.457 -0.074,0.935 -0.347,1.162 -0.255,0.211 -0.463,0.556 -0.463,0.766 0,0.209 -0.203,0.459 -0.45,0.554 -0.248,0.095 -0.45,0.379 -0.45,0.632 0,0.253 -0.135,0.46 -0.3,0.46 -0.166,0 -0.301,0.172 -0.301,0.383 0,0.212 -0.27,0.579 -0.6,0.817 -0.33,0.238 -0.6,0.564 -0.6,0.724 0,0.625 -5.056,5.276 -5.534,5.092 -0.319,-0.122 -0.424,-0.048 -0.322,0.227 0.141,0.38 -2.729,2.659 -3.348,2.659 -0.14,0 -0.633,0.351 -1.096,0.78 -0.546,0.507 -1.053,0.725 -1.446,0.622 -0.437,-0.114 -0.559,-0.039 -0.44,0.27 0.09,0.236 0.025,0.429 -0.146,0.429 -0.17,0 -1.048,0.337 -1.95,0.75 -0.902,0.412 -1.898,0.75 -2.213,0.75 -0.316002,0 -0.648002,0.12 -0.738002,0.266 -0.091,0.146 -0.639,0.355 -1.218,0.464 -0.58,0.108 -1.054,0.326 -1.054,0.484 0,0.157 -0.472,0.286 -1.05,0.286 -0.578,0 -1.05,0.132 -1.05,0.294 0,0.161 -0.507,0.283 -1.126,0.271 -0.618,-0.013 -1.935,0.134 -2.925,0.325 -5.396999,1.04 -14.567998,-0.007 -18.992998,-2.169 -0.788,-0.385 -0.687,-4.14 0.133,-4.96 0.223,-0.223 0.405,-0.725 0.405,-1.116 0,-0.391 0.135,-0.795 0.3,-0.897 0.165,-0.102 0.3,-0.452 0.3,-0.777 0,-0.326 0.203,-0.67 0.45,-0.765 0.257,-0.098 0.45,-0.546 0.45,-1.04 0,-0.478 0.136,-0.869 0.301,-0.869 0.165,0 0.3,-0.337 0.3,-0.75 0,-0.412 0.135,-0.75 0.3,-0.75 0.165,0 0.3,-0.27 0.3,-0.6 0,-0.33 0.132,-0.6 0.294,-0.6 0.162,0 0.379,-0.337 0.482,-0.748 0.104,-0.412 0.309,-0.674 0.456,-0.583 0.148,0.091 0.268,-0.127 0.268,-0.484 0,-0.421 0.142,-0.596 0.403,-0.495 0.289,0.11 0.364,-0.051 0.266,-0.568 -0.08,-0.415 0.004,-0.723 0.196,-0.723 0.185,0 0.335,0.143 0.335,0.318 0,0.174 0.13,0.238 0.287,0.14 0.158,-0.098 0.218,-0.358 0.133,-0.579 -0.085,-0.221 0.056,-0.483 0.313,-0.581 0.257,-0.099 0.471,-0.42 0.475,-0.714 0.006,-0.485 1.816,-2.785 2.192,-2.785 0.086,0 0.226,0.236 0.31,0.525 0.088,0.303 0.129,0.208 0.097,-0.225 -0.058,-0.783 3.834999,-4.915 4.970999,-5.275 0.288,-0.092 0.525,-0.302 0.525,-0.467 0,-0.171 0.278,-0.212 0.645,-0.095 0.489,0.155 0.605,0.099 0.48,-0.228 -0.107,-0.278 0.198,-0.628 0.855,-0.982 0.561,-0.302 1.020999,-0.663 1.020999,-0.802 0,-0.139 0.317,-0.253 0.706,-0.253 0.388,0 1.071,-0.338 1.516,-0.75 0.445,-0.413 1.049,-0.751 1.343,-0.751 0.294,0 1.18,-0.327 1.97,-0.727 0.79,-0.4 1.63,-0.6530002 1.866,-0.5620002 0.236,0.09 0.592,-0.041 0.79,-0.292 0.348,-0.439 0.689,-0.535 3.962002,-1.11 0.825,-0.144998 1.973,-0.394998 2.55,-0.555998 1.332,-0.37 8.488,-0.401 11.253,-0.048 M 60.28,37.442019 c -0.469,0.205 -0.436,0.226 0.173,0.111 1.054,-0.199 1.782,0.28 0.848,0.559 -0.672,0.201 -0.676,0.219 -0.101,0.451 0.362,0.145 0.682,0.114 0.806,-0.079 0.215,-0.335 1.511,0.189 2.292,0.927 0.218,0.207 0.589,0.376 0.825,0.376 0.235,0 0.428,0.135 0.428,0.3 0,0.165 0.27,0.3 0.601,0.3 0.33,0 0.6,0.109 0.6,0.242 0,0.266 2.091,1.258 2.651,1.258 0.254,0 0.347,1.543 0.342,5.626 l -0.008,5.627 -1.141,0.525 c -0.627,0.289 -1.299,0.525 -1.493,0.525 -0.193,0 -0.351,0.103 -0.351,0.229 0,0.127 -0.507,0.467 -1.126,0.756 -0.618,0.29 -1.582,0.802 -2.141,1.138 -0.558,0.336 -1.215,0.534 -1.458,0.441 -0.305,-0.117 -0.389,-0.029 -0.269,0.283 0.128,0.334 -0.043,0.46 -0.642,0.478 -0.449,0.013 -0.647,0.091 -0.441,0.175 0.588,0.237 0.439,0.701 -0.224,0.701 -0.33,0 -1.257,-0.472 -2.062,-1.05 -0.804,-0.578 -1.669,-1.05 -1.923,-1.05 -0.308,0 -0.41,-0.193 -0.309,-0.58 0.123,-0.471 0.031,-0.548 -0.488,-0.413 -0.355,0.093 -0.869,-0.027 -1.155,-0.27 -0.76,-0.647 -3.006,-1.737 -3.601,-1.748 -0.463,-0.008 -0.457,-0.053 0.056,-0.441 0.52,-0.394 0.526,-0.45 0.067,-0.626 -0.381,-0.146 -0.423,-0.291 -0.172,-0.593 0.347,-0.418 0.239,-7.375 -0.137,-8.833 -0.18,-0.698 -0.011,-0.839 2.439,-2.039 2.998,-1.469 4.964,-2.528 5.184,-2.793 0.343,-0.415 1.969,-1.1 2.229,-0.939 0.155,0.095 0.02,0.287 -0.299,0.426 m 25.075999,14.502 c 0,0.463 -0.17,0.746 -0.45,0.746 -0.249999,0 -0.449999,0.267 -0.449999,0.6 0,0.33 -0.101,0.601 -0.225,0.602 -0.269,0.003 -0.975,1.456 -0.975,2.008 0,0.215 -0.203,0.391 -0.45,0.391 -0.248,0 -0.45,0.175 -0.45,0.389 0,0.213 -0.574,1.328 -1.276,2.476 -0.701,1.148 -1.535,2.58 -1.853,3.182 -0.36,0.684 -0.732,1.036 -0.99,0.937 -0.313,-0.12 -0.365,0.032 -0.215,0.63 0.124,0.495 0.074,0.788 -0.135,0.788 -0.183,0 -0.333,0.337 -0.333,0.75 0,0.467 -0.17,0.75 -0.45,0.75 -0.25,0 -0.45,0.267 -0.45,0.6 0,0.608 -0.48,0.773 -1.078,0.371 -0.18,-0.121 -0.571,-0.866 -0.869,-1.656 -0.299,-0.789 -0.657,-1.506 -0.798,-1.593 -0.141,-0.087 -0.256,-0.42 -0.256,-0.74 0,-0.321 -0.135,-0.583 -0.3,-0.583 -0.165,0 -0.302,-0.236 -0.304,-0.525 -0.006,-0.682 -0.673,-2.59 -1.089,-3.116 -0.838,-1.057 -0.744,-4.899 0.128,-5.269 1.338,-0.567 3.655,-1.292 4.131,-1.292 0.244,0 0.678,-0.125 0.964,-0.278 0.592,-0.316 3.877,-0.747 6.448,-0.847 1.655999,-0.065 1.724999,-0.037 1.724999,0.679 m 14.324999,1.887 c -0.244,0.28 -0.813,1.184 -1.264,2.01 -0.451,0.825 -0.923,1.635 -1.049,1.8 -0.126,0.165 -0.566,0.908 -0.979,1.65 -0.626,1.126 -3.782,6.647 -5.949,10.408003 -0.303,0.526 -0.894999,1.502 -1.316999,2.17 -0.421,0.668 -0.766,1.264 -0.766,1.325 0,0.061 -0.743,1.343 -1.65,2.848 -2.190999,3.634 -2.201999,3.61 3,6.709 5.749999,3.425 6.565999,3.536 7.951999,1.08 1.622,-2.871 2.14,-3.766 3.953002,-6.835 0.927,-1.568 1.948,-3.323 2.27,-3.901 1.483,-2.663 6.507,-11.332003 6.956,-12.003003 0.718,-1.071 0.513,-1.507 -1.304,-2.772 -4.958,-3.454 -9.108,-5.345 -9.853002,-4.489 m 3.230002,1.417 c 0.66,0.407 1.436,0.74 1.725,0.741 0.289,10e-4 0.528,0.103 0.531,0.227 0.004,0.123 0.679,0.624 1.501,1.112 0.822,0.488 1.494,0.985 1.494,1.105 0,0.12 0.263,0.301 0.585,0.403 0.379,0.121 0.521,0.352 0.404,0.658 -0.106,0.276 0.025,0.587 0.315,0.75 0.539,0.301 0.684,1.148 0.196,1.148 -0.165,0 -0.3,0.187 -0.3,0.416 0,0.505 -0.521,1.523 -1.425,2.785 -0.371,0.519 -0.675,1.091 -0.675,1.271 0,0.181 -0.135,0.329 -0.3,0.329 -0.165,0 -0.3,0.274 -0.3,0.61 0,0.335 -0.203,0.687 -0.45,0.782 -0.248,0.095 -0.454,0.395 -0.457,0.666 -0.004,0.271 -0.271,0.830003 -0.594,1.243003 -0.322,0.413 -0.59,0.86 -0.593,0.995 -0.004,0.135 -0.344,0.688 -0.757,1.229 -0.413,0.541 -0.75,1.201 -0.75,1.467 0,0.265 -0.338,0.82 -0.75,1.233 -0.413,0.413 -0.751,0.959 -0.751,1.214 0,0.255 -0.135,0.464 -0.3,0.464 -0.165,0 -0.3,0.274 -0.3,0.609 0,0.335 -0.202,0.687 -0.45,0.782 -0.247,0.095 -0.45,0.429 -0.45,0.741 0,0.313 -0.135002,0.568 -0.300002,0.568 -0.165,0 -0.3,0.203 -0.3,0.45 0,0.248 -0.106,0.451 -0.234,0.451 -0.129,0 -0.39,0.371 -0.58,0.825 -0.451,1.081 -1.377,2.599 -1.662,2.725 -0.124,0.055 -0.225,0.287 -0.225,0.515 0,1.16 -2.22,1.129 -3.806,-0.053 -0.525,-0.391 -1.099,-0.712 -1.275,-0.712 -0.176,0 -0.32,-0.135 -0.32,-0.3 0,-0.165 -0.262,-0.3 -0.583,-0.3 -0.32,0 -0.665,-0.135 -0.767,-0.3 -0.102,-0.165 -0.394999,-0.3 -0.649999,-0.3 -0.256,0 -0.73,-0.338 -1.055,-0.75 -0.324,-0.413 -0.782,-0.75 -1.018,-0.75 -0.236,0 -0.428,-0.27 -0.428,-0.6 0,-0.665 -0.465,-0.814 -0.702,-0.226 -0.093,0.231 -0.16,0.181 -0.175,-0.132 -0.013,-0.279 0.112,-0.591 0.277,-0.693 0.165,-0.102 0.3,-0.447 0.3,-0.768 0,-0.725 0.503,-0.766 0.706,-0.057 0.083,0.289 0.074,-0.003 -0.02,-0.648 -0.146,-1.003 -0.1,-1.147 0.321,-0.985 0.375,0.144 0.493,0.012 0.493,-0.552 0,-0.407 0.135,-0.741 0.3,-0.741 0.165,0 0.3,-0.215 0.3,-0.478 0,-0.264 0.304,-0.903 0.675,-1.422 0.662999,-0.925 1.462999,-2.313 2.535999,-4.401003 0.297,-0.578 0.641,-1.096 0.765,-1.151 0.124,-0.055 0.225,-0.291 0.225,-0.525 0,-0.233 0.135,-0.425 0.3,-0.425 0.165,0 0.3,-0.207 0.3,-0.459 0,-0.253 0.203,-0.538 0.45,-0.633 0.248,-0.095 0.451,-0.495 0.451,-0.89 0,-0.395 0.135,-0.718 0.3,-0.718 0.165,0 0.3,-0.264 0.3,-0.585 0,-0.322 0.337,-0.949 0.75,-1.394 0.413,-0.445 0.75,-0.993 0.75,-1.216 0,-0.224 0.119,-0.406 0.265,-0.406 0.146,0 0.352,-0.237 0.457,-0.525 0.239,-0.653 1.348,-2.677 2.071,-3.781 0.499,-0.761 1.419002,-1.344 2.158002,-1.367 0.165,-0.006 0.841,0.323 1.501,0.729 m 7.544,4.794 c 0.489,0.488 0.416,0.549 -0.318,0.268 -0.261,-0.101 -0.475,-0.303 -0.475,-0.451 0,-0.392 0.283,-0.328 0.793,0.183 m -49.314,0.924 c 0.588,0.545 0.787,0.967 0.675,1.425 -0.088,0.358 -0.083,0.483 0.012,0.276 0.353,-0.768 0.443,-0.7 3.648,2.727 0.702,0.75 1.276,1.508 1.276,1.684 0,0.176 0.337,0.613 0.75,0.972 0.412,0.358 0.75,0.83 0.75,1.048003 0,0.218 0.135,0.396 0.3,0.396 0.165,0 0.3,0.193 0.3,0.429 0,0.235 0.169,0.612 0.375,0.836 0.207,0.225 0.523,0.673 0.704,0.997 0.18,0.324 0.477,0.859 0.66,1.189 0.183,0.33 0.553,1.14 0.823,1.8 0.269,0.66 0.613,1.435 0.764,1.722 0.151,0.286 0.275,0.776 0.275,1.088 0,0.312 0.203,0.736 0.45,0.941 0.248,0.206 0.45,0.754 0.45,1.22 0,0.465 0.135,0.929 0.3,1.031 0.165,0.102 0.3,0.69 0.3,1.308 0,0.617 0.12,1.251 0.266,1.407 0.948,1.02 0.948,14.855 0,15.874 -0.146,0.157 -0.266,0.790998 -0.266,1.407998 0,0.618 -0.135,1.206 -0.3,1.308 -0.165,0.102 -0.3,0.443 -0.3,0.758 0,0.517 -0.54,1.986 -1.237,3.364 -0.144,0.287 -0.263,0.793 -0.263,1.125 0,0.333 -0.102,0.605 -0.226,0.605 -0.124,0 -0.622,0.844 -1.108,1.875 -0.486,1.032 -1.025,2.026 -1.2,2.211 -1.026,1.085 -1.667,1.966 -1.668,2.292 0,0.206 -0.67,1.116 -1.49,2.024 -0.819,0.907 -1.494,1.752 -1.5,1.876 -0.005,0.124 -0.92,1.11 -2.033,2.19 -2.182,2.119 -2.735,2.258 -4.06,1.023 -0.348,-0.324 -0.75,-0.588 -0.895,-0.588 -0.145,0 -0.174,-0.284 -0.064,-0.63 0.165,-0.521 0.101,-0.598 -0.372,-0.448 -0.692,0.219 -2.36,-1.621 -4.982,-5.497 -0.959,-1.418 -1.938,-2.815 -2.176,-3.106 -0.237,-0.291 -0.432,-0.722 -0.432,-0.958 0,-0.236 -0.115,-0.5 -0.256,-0.587 -0.14,-0.087 -0.491,-0.905 -0.778,-1.818 -0.287,-0.913 -0.644,-1.66 -0.794,-1.66 -0.15,0 -0.272,-0.329 -0.272,-0.732 0,-0.403 -0.135,-0.816 -0.3,-0.918 -0.165,-0.102 -0.3,-0.506 -0.3,-0.897 0,-0.391 -0.203,-0.913 -0.45,-1.161 -0.248,-0.247 -0.45,-0.934 -0.45,-1.526 0,-0.591 -0.125,-1.309998 -0.278,-1.596998 -0.782,-1.466 -0.763,-15.674 0.02,-15.674 0.142,0 0.262,-0.574 0.267,-1.276 0.005,-0.701 0.208,-1.537 0.45,-1.858 0.242,-0.32 0.441,-0.826 0.441,-1.125 0,-0.298 0.135,-0.543 0.3,-0.543 0.165,0 0.3,-0.397 0.3,-0.882 0,-0.486 0.135,-0.966 0.3,-1.068 0.165,-0.102 0.3,-0.504 0.3,-0.893 0,-0.389 0.109,-0.753 0.243,-0.808 0.316,-0.13 1.858,-3.25 1.858,-3.759 0,-0.216 0.122,-0.392 0.271,-0.392 0.149,0 0.979,-1.104 1.845,-2.453003 1.716,-2.676 2.906,-3.913 3.546,-3.685 0.279,0.099 0.365,-0.031 0.267,-0.405 -0.099,-0.382 0.31,-0.956 1.343,-1.879 0.818,-0.732 1.706,-1.566 1.975,-1.855 0.627,-0.674 0.655,-0.67 1.646,0.249 m 58.14,10.597003 c -0.328,0.643 -1.697,3.039 -3.043,5.326 -1.346,2.287 -2.791,4.766 -3.212,5.508 -0.42,0.743 -1.336,2.32 -2.036,3.504 -0.7,1.184 -1.194,2.231 -1.1,2.325 0.787,0.787 9.243,-0.152 13.501,-1.498 l 2.475,-0.783 v -1.217 c 0,-3.08 -4.356,-14.334 -5.548,-14.334 -0.243,0 -0.709,0.526 -1.037,1.169 m 1.373,0.963 c -0.145,0.722 -0.093,0.896 0.231,0.772 0.459,-0.176 1.981,2.441 1.981,3.408 0,0.305 0.135,0.638 0.3,0.74 0.165,0.102 0.301,0.414 0.302,0.693 10e-4,0.279 0.203,0.894 0.45,1.367 0.246,0.473 0.448,1.309 0.448,1.858 0,0.549 0.135,1.081 0.3,1.183 0.523,0.323 0.38,2.946 -0.15,2.742 -0.274,-0.105 -0.45,0 -0.45,0.268 0,0.304 -0.327,0.441 -1.05,0.441 -0.578,0 -1.051,0.135 -1.051,0.3 0,0.165 -0.371,0.301 -0.825,0.302 -0.454,0.001 -1.187,0.191 -1.629,0.422 -0.843,0.439 -6.463,0.804 -7.669,0.497 l -0.672,-0.171 1.022,-1.95 c 0.561,-1.073 1.252,-2.393 1.534,-2.934 0.405,-0.775 0.649,-0.946 1.151,-0.805 0.484,0.135 0.533,0.106 0.203,-0.121 -0.446,-0.307 0.402,-2.73 0.959,-2.738 0.124,-0.002 0.225,-0.212 0.225,-0.466 0,-0.433 0.192,-0.736 1.125,-1.777 0.207,-0.23 0.375,-0.623 0.375,-0.872 0,-0.25 0.135,-0.538 0.301,-0.64 0.165,-0.102 0.3,-0.447 0.3,-0.768 0,-0.32 0.202,-0.582 0.45,-0.582 0.247,0 0.45,-0.203 0.45,-0.45 0,-0.248 0.135,-0.45 0.3,-0.45 0.165,0 0.3,-0.27 0.3,-0.6 0,-0.354 0.2,-0.6 0.488,-0.6 0.385,0 0.448,0.195 0.301,0.931 m -32.897001,6.553 c 0,0.339 0.135,0.618 0.3,0.618 0.165,0 0.3,-0.195 0.3,-0.433 0,-0.238 -0.135,-0.516 -0.3,-0.618 -0.165,-0.102 -0.3,0.093 -0.3,0.433"
       stroke="none"
       fill="#2c1700"
       fill-rule="evenodd" />
    <path
       id="path4"
       d="m 58.734,-27.363979 c -4.829,4.362 -7.596,8.009 -10.425,13.737 -0.529,1.073 -1.202,2.761 -1.495,3.7509998 -0.293,0.99 -0.713,2.356 -0.933,3.036 -2.651,8.182 -1.702,19.3209982 2.404,28.2079982 2.808,6.077 9.621,14.218 11.899,14.218 3.514,0 12.563,-13.017 14.498,-20.856 0.285,-1.155 0.674,-2.708 0.864,-3.451 1.819,-7.1099982 -0.823,-22.189998 -4.887,-27.896998 -0.333,-0.469 -0.606,-0.976 -0.606,-1.128 0,-1.045 -7.565,-9.654 -9.299,-10.582 -0.506,-0.271 -0.818,-0.122 -2.02,0.964 m 4.427,2.272 c 1.293,1.286 2.856,3.072 3.473,3.969 0.617,0.897 1.231,1.769 1.365,1.938 0.134,0.169 0.584,0.731 0.999,1.25 0.415,0.519 0.754,1.165 0.754,1.435 0,0.27 0.191,0.564 0.423,0.654 0.233,0.089 0.503,0.48 0.601,0.87 0.098,0.389 0.359,0.888 0.58,1.109 0.402,0.402 1.551,3.188 2.017,4.8909998 0.136,0.495 0.396,1.441 0.579,2.101 2.295,8.274 1.991,16.484998 -0.876,23.7059982 -0.131,0.33 -0.482,1.376 -0.78,2.325 -0.297,0.949 -0.654,1.726 -0.792,1.726 -0.138,0 -0.251,0.21 -0.251,0.467 0,0.516 -1.23,2.828 -2.139,4.021 -0.32,0.42 -1.286,1.719 -2.147,2.886 -1.788,2.425 -3.111,4.029 -3.323,4.029 -0.08,0 -0.73,0.605 -1.444,1.345 -1.419,1.469 -1.996,1.628 -3.01,0.83 -1.306,-1.027 -5.645,-5.626 -6.3,-6.676 -0.257,-0.413 -1.065,-1.696 -1.796,-2.851 -1.45,-2.293 -3.547,-6.797 -3.547,-7.617 0,-0.284 -0.123,-0.643 -0.272,-0.8 -0.455,-0.476 -1.163,-3.156 -1.821,-6.8870002 -0.339,-1.924998 -0.35,-9.49199796 -0.016,-11.252998 0.141,-0.742 0.346,-1.89 0.456,-2.55 0.11,-0.661 0.31,-1.471 0.444,-1.801 0.465,-1.146 1.209,-3.823 1.209,-4.3489998 0,-0.291 0.194,-0.69 0.431,-0.886 0.237,-0.197 0.515,-0.72 0.617,-1.162 0.103,-0.443 0.483,-1.303 0.845,-1.912 0.362,-0.609 1.265,-2.127 2.008,-3.374 0.743,-1.247 1.451,-2.268 1.575,-2.269 0.124,-0.001 0.225,-0.115 0.225,-0.253 0,-0.571 5.312,-6.221 6.493,-6.907 0.877,-0.51 0.936,-0.476 3.42,1.995 M 2.5910004,6.9240208 c -1.208,0.232 -2.62600003,0.552 -3.15100023,0.713 -0.52599997,0.16 -1.47099997,0.378 -2.10099997,0.484 C -5.766,8.6430188 -6.231,9.5470188 -5.269,13.185019 c 3.4740002,13.142 11.0260004,22.268 23.322,28.184 6.716,3.232 18.608,4.412 25.593,2.541 1.568,-0.42 3.406,-0.853 4.084,-0.962 1.452,-0.234 2.685,-1.598 2.41,-2.664 -2.189,-8.496 -4.175,-12.864 -8.293,-18.244 -1.434,-1.873 -4.873,-5.359 -5.288,-5.359 -0.193,0 -0.423,-0.19 -0.512,-0.421 -0.237,-0.616 -5.522,-4.227 -7.745,-5.29 -1.051,-0.503 -2.169,-1.0590002 -2.484,-1.2360002 C 21.323,7.2200208 8.8880004,5.7150208 2.5910004,6.9240208 m 13.2979996,0.734 c 5.99,1.139998 7.974,1.873998 15.043,5.5649982 0.818,0.427 2.774,1.951 3.379,2.633 0.256,0.288 0.61,0.525 0.786,0.525 0.713,0 5.471,5.029 7.579,8.011 1.467,2.076 3.917,6.737 4.701,8.943 0.294,0.825 0.645,1.77 0.781,2.1 0.259,0.627 0.51,1.87 0.787,3.901 0.09,0.661 0.276,1.32 0.414,1.467 0.578,0.614 -1.301,1.404 -4.513,1.895 -0.577,0.088 -1.212,0.29 -1.409,0.448 -0.197,0.158 -2.223,0.501 -4.501,0.762 -5.98,0.685 -11.139,0.045 -18.096,-2.243 -1.61,-0.529 -5.591,-2.45 -6.348,-3.063 -0.295,-0.239 -1.123,-0.779 -1.841,-1.2 -3.0579996,-1.796 -7.8109996,-6.06 -9.4749996,-8.501 -0.25,-0.367 -0.631,-0.775 -0.847,-0.907 -0.217,-0.132 -0.394,-0.415 -0.394,-0.629 0,-0.214 -0.255,-0.62 -0.568,-0.903 -0.95700003,-0.866 -4.5190002,-8.34 -5.2340002,-10.982 C -5.515,9.3880188 -5.607,9.6360188 -1.2849998,8.5420208 c 1.35900017,-0.343 3.2560002,-0.732 4.2150002,-0.864 0.96,-0.131 1.817,-0.31 1.904,-0.398 0.427,-0.427 8.2299996,-0.16 11.0549996,0.378 M 29.092,50.585019 c -5.716,0.838 -11.104,2.752 -15.904,5.649 -4.1669996,2.517 -9.1009996,6.888 -11.2399996,9.959 -2.00400003,2.877003 -3.6800002,5.524003 -4.0630002,6.418003 -0.22,0.514 -0.729,1.677 -1.131,2.584 -2.9340002,6.625 -3.3720002,10.791 -1.177,11.185 0.444,0.08 2.157,0.516 3.80799997,0.969 4.72700023,1.299 16.64699983,1.395 19.50499983,0.158 0.33,-0.143 1.545,-0.49 2.7,-0.772 1.89,-0.461 9.721,-4.06 10.707,-4.92 0.218,-0.191 1.071,-0.847 1.897,-1.458 2.465,-1.827 6.104,-5.267 7.051,-6.667 0.248,-0.365 0.666,-0.953 0.93,-1.305 3.105,-4.147003 5.223,-8.195003 6.459,-12.343003 0.393,-1.321 0.917,-3.027 1.164,-3.792 0.771,-2.386 0.133,-3.645 -2.018,-3.983 -0.706,-0.11 -1.688,-0.324 -2.184,-0.474 -3.306,-1.005 -4.981,-1.239 -9.669,-1.351 -2.769,-0.067 -5.844,-0.002 -6.835,0.143 m 13.877,1.218 c 1.28,0.347 3.138,0.85 4.128,1.119 0.99,0.269 1.868,0.577 1.95,0.684 0.083,0.107 0.353,0.271 0.6,0.365 0.359,0.137 0.344,0.177 -0.075,0.195 -0.377,0.018 -0.525,0.276 -0.525,0.92 0,1.023 -0.542,3.502 -0.935,4.276 -0.146,0.287 -0.265,0.678 -0.265,0.87 0,0.343 -2.793,6.693 -3.229,7.342 -0.122,0.181 -0.613,0.924 -1.091,1.650003 -0.858,1.303 -1.27,1.829 -3.632,4.634 -1.054,1.252 -4.156,4.395 -5.392,5.463 -0.239,0.207 -0.575,0.376 -0.747,0.376 -0.172,0 -0.313,0.101 -0.315,0.225 -0.001,0.123 -0.435,0.495 -0.964,0.825 -2.7,1.684 -3.752,2.295 -4.435,2.579 -0.413,0.171 -1.628,0.723 -2.701,1.226 -2.685,1.26 -2.837,1.312 -5.551,1.902 -1.32,0.287 -2.803,0.644 -3.296,0.792 -3.369,1.016 -16.33699963,0.298 -17.6939998,-0.979 -0.157,-0.148 -0.723,-0.269 -1.258,-0.269 -0.535,0 -1.056,-0.135 -1.158,-0.3 -0.102,-0.165 -0.459,-0.3 -0.794,-0.3 -1.0750002,0 -0.36,-4.993 1.224,-8.552 2.82399997,-6.349 4.6720002,-9.200003 8.6470002,-13.339003 1.196,-1.246 2.175,-2.366 2.175,-2.49 10e-4,-0.124 0.147,-0.225 0.326,-0.225 0.29,0 2.2059996,-1.432 3.6719996,-2.746 1.299,-1.164 8.411,-4.621 10.204,-4.96 0.524,-0.099 1.088,-0.28 1.253,-0.401 0.165,-0.121 0.705,-0.293 1.2,-0.383 0.495,-0.09 1.508,-0.318 2.251,-0.507 4.272,-1.088 12.392,-1.084 16.427,0.008"
       stroke="none"
       fill="#f9e49b"
       fill-rule="evenodd"
       style="fill:#ffcc00" />
    <path
       style="fill:#ffcc00;fill-opacity:1;stroke:#ffcc00;stroke-width:1.108;stroke-opacity:1;stroke-miterlimit:4;stroke-dasharray:none"
       d="m 4.5322704,87.276022 c -2.56432,-0.25912 -7.5294102,-1.49045 -8.4945502,-2.10662 -0.81927,-0.52305 -0.90964,-0.82249 -0.68619,-2.27365 0.4059,-2.63611 1.40791,-5.48752 3.16905,-9.0182 C 2.6207204,65.657739 8.6985704,59.504069 16.57308,55.599859 c 9.85329,-4.8853 19.44684,-5.68341 30.32023,-2.52243 l 2.1734,0.63182 -0.28042,1.92089 c -0.35577,2.437 -1.92582,6.85799 -3.6703,10.33489 -2.55015,5.082693 -8.92612,12.110303 -13.81274,15.224453 -7.76881,4.95091 -17.07372,7.06644 -26.7709796,6.08654 z"
       id="path62" />
    <path
       style="fill:#ffcc00;fill-opacity:1;stroke:#ffcc00;stroke-width:1.308;stroke-opacity:1;stroke-miterlimit:4;stroke-dasharray:none"
       d="m 26.98124,43.102709 c -4.7254,-1.05124 -7.0139,-1.86831 -10.61224,-3.78893 -5.8241,-3.10861 -11.3416796,-7.91092 -14.7039196,-12.79777 -2.9719602,-4.3196 -6.9175604,-14.59839 -6.2607402,-16.31004 0.26262,-0.6843602 1.53704,-1.0815702 7.3660502,-2.2958582 3.76838,-0.78502 4.60686,-0.82492 8.9795996,-0.42738 6.24305,0.56758 10.3124,1.645518 15.39992,4.0793382 3.75945,1.79847 5.06217,2.68652 9.74742,6.64471 4.69202,3.9639 10.34308,13.57341 11.57029,19.67502 0.35265,1.75336 0.53917,3.28993 0.41449,3.41461 -0.12468,0.12468 -1.84318,0.6753 -3.81888,1.22358 -5.06847,1.40658 -13.20065,1.66865 -18.08199,0.58272 z"
       id="path64" />
    <path
       style="fill:#ffcc00;fill-opacity:1;stroke:#ffcc00;stroke-width:0.8;stroke-opacity:1;stroke-miterlimit:4;stroke-dasharray:none"
       d="m 56.369,31.278749 c -3.88867,-4.06281 -6.57894,-8.42836 -8.58545,-13.93181 -4.72048,-12.9473382 -2.55997,-26.6849982 5.94254,-37.785777 2.22361,-2.90312 5.97506,-6.704019 6.61681,-6.704019 0.87362,0 7.16975,7.260872 9.38604,10.824254 4.22649,6.7954098 6.4155,18.1700938 5.0333,26.1544618 -1.0768,6.2202402 -3.86689,12.7323702 -7.60771,17.7565202 -2.47231,3.32046 -6.28205,7.30227 -6.99253,7.30835 -0.17799,0.002 -1.88484,-1.62837 -3.793,-3.62198 z"
       id="path66" />
    <text
       xml:space="preserve"
       style="font-style:normal;font-weight:normal;font-size:64px;line-height:1.25;font-family:sans-serif;fill:#000000;fill-opacity:1;stroke:none"
       x="135.10204"
       y="64.081627"
       id="text70"><tspan
         sodipodi:role="line"
         id="tspan68"
         x="135.10204"
         y="64.081627"
         style="font-style:normal;font-variant:normal;font-weight:normal;font-stretch:normal;font-size:64px;font-family:'07LightNovelPOP';-inkscape-font-specification:'07LightNovelPOP'">chot.HELP</tspan></text>
  </g>
  <path
     style="fill:#ffcc00;stroke:#ffcc00;stroke-width:0;stroke-linecap:butt;stroke-linejoin:miter;stroke-miterlimit:4;stroke-dasharray:none;stroke-opacity:1"
     d="m 83.113674,98.517298 c 0,0 10.214168,-16.886326 10.461285,-17.792422 0.247117,-0.906095 12.721891,1.842542 13.493891,2.804542 0.772,0.962 -14.317614,26.025772 -14.317614,26.025772 0,0 -9.308073,-7.66063 -9.637562,-11.037892 z"
     id="path118"
     sodipodi:nodetypes="csscc" />
  <path
     style="fill:#ffcc00;stroke:#ffcc00;stroke-width:0;stroke-linecap:butt;stroke-linejoin:miter;stroke-miterlimit:4;stroke-dasharray:none;stroke-opacity:1"
     d="m 103.37726,115.56837 15.28932,-25.41609 c 0,0 9.75187,8.282644 9.09289,10.42433 -0.1625,0.52813 -10.35483,17.21116 -10.35483,17.21116 0,0 3.51793,1.89922 -14.02738,-2.2194 z"
     id="path943"
     sodipodi:nodetypes="ccscc" />
</svg>
